<?xml version="1.0" encoding="utf-8"?>
<!-- Generator: Adobe Illustrator 17.0.0, SVG Export Plug-In . SVG Version: 6.00 Build 0)  -->
<!DOCTYPE svg PUBLIC "-//W3C//DTD SVG 1.1//EN" "http://www.w3.org/Graphics/SVG/1.1/DTD/svg11.dtd">
<svg version="1.1" id="Layer_1" xmlns="http://www.w3.org/2000/svg" xmlns:xlink="http://www.w3.org/1999/xlink" x="0px" y="0px"
	 width="197.603px" height="179.786px" viewBox="0 0 197.603 179.786" enable-background="new 0 0 197.603 179.786"
	 xml:space="preserve">
<g>
	<g>
		<path fill="#73B9E6" d="M153.802,160.089c0,0,6.325-4.439,7.493-8.429c1.161-3.982,1.407-9.125,1.407-10.293
			c0-1.168-2.821-0.472-4.446,1.639c-1.639,2.111-7.254,8.422-7.254,8.422s-0.711-0.225,2.111-4.672
			c2.793-4.454,5.143-10.3,5.143-10.3s-0.704-3.982-4.454,0c-3.743,3.982-14.972,20.354-14.972,20.354s14.036-22.929,14.972-24.569
			c0.936-1.639-0.936-3.75-3.047-1.639c-2.104,2.111-11.926,15.668-11.926,15.668s-0.704-0.457,3.743-7.479
			c0,0,1.4-1.865,2.111-3.279c0.697-1.407-2.821-0.704-4.214-0.704c-1.4,0-6.557-0.232-6.557-0.232l-3.75,5.861
			c0,0,4.207,2.617,4.207,4.475c0,1.843-0.689,7.915,0.711,10.976c1.4,3.025,3.511,4.904,4.911,5.368c0,0,2.343-3.736,3.039-4.214
			c0.718-0.464,0,2.568-1.865,5.375c0,0,5.615,1.639,7.957-2.097c2.35-3.743,5.382-8.661,6.55-8.422
			C156.842,152.131,152.17,159.61,153.802,160.089"/>
	</g>
	<g>
		<path fill="#73B9E6" d="M143.933,162.852c-1.534,0-2.772-0.359-2.786-0.366l-0.098-0.014l0.063-0.078
			c1.576-2.378,2.315-4.883,2.096-5.298c-0.021-0.035-0.035-0.035-0.035-0.035s-0.049,0.007-0.099,0.049
			c-0.675,0.443-3.004,4.144-3.018,4.179l-0.035,0.049l-0.049-0.021c-1.4-0.464-3.546-2.364-4.946-5.417
			c-1.126-2.449-0.915-6.839-0.774-9.463c0.042-0.626,0.063-1.168,0.063-1.541c0-1.78-4.144-4.383-4.179-4.418l-0.049-0.028
			l0.035-0.049l3.764-5.896l0.035,0.007c0.042,0,5.15,0.239,6.543,0.239c0.317,0,0.767-0.035,1.217-0.084
			c0.535-0.049,1.161-0.084,1.675-0.084c0.795,0,1.252,0.113,1.421,0.38c0.098,0.148,0.07,0.338-0.049,0.584
			c-0.703,1.393-2.104,3.264-2.104,3.293c-3.532,5.565-3.799,6.972-3.771,7.317c0.915-1.266,9.878-13.607,11.869-15.605
			c0.584-0.584,1.217-0.901,1.794-0.901c0.57,0,1.076,0.295,1.365,0.788c0.324,0.542,0.309,1.245-0.021,1.829
			c-0.767,1.344-10.342,16.998-13.769,22.599c3.082-4.433,10.715-15.345,13.663-18.469c1.119-1.175,2.083-1.78,2.87-1.78
			c1.344,0,1.682,1.801,1.696,1.822v0.021l-0.014,0.014c-0.028,0.063-2.364,5.903-5.143,10.307c-2.244,3.539-2.23,4.369-2.167,4.545
			c0.563-0.633,5.671-6.395,7.212-8.358c1.112-1.449,2.758-2.223,3.722-2.223c0.542,0,0.837,0.225,0.837,0.619
			c0,1.175-0.246,6.346-1.414,10.314c-1.154,3.954-7.458,8.415-7.507,8.45l-0.035,0.042l-0.028-0.028
			c-0.134-0.035-0.239-0.134-0.317-0.26c-0.338-0.718,0.478-2.659,1.266-4.538c0.598-1.435,1.238-2.927,1.034-3.307
			c-0.014-0.049-0.063-0.063-0.105-0.077c-0.014-0.014-0.035-0.014-0.063-0.014c-1.175,0-4.123,4.728-6.269,8.175l-0.148,0.239
			C147.894,162.423,145.615,162.852,143.933,162.852 M141.267,162.395c0.303,0.078,1.372,0.324,2.667,0.324
			c1.653,0,3.877-0.422,5.129-2.427l0.169-0.246c2.28-3.658,5.122-8.225,6.367-8.225c0.028,0,0.049,0,0.091,0.014
			c0.084,0.021,0.148,0.063,0.19,0.141c0.232,0.429-0.359,1.815-1.027,3.419c-0.739,1.766-1.59,3.757-1.26,4.419
			c0.035,0.12,0.099,0.176,0.204,0.197c0.443-0.31,6.318-4.587,7.43-8.365c1.175-3.954,1.4-9.111,1.4-10.279
			c0-0.429-0.429-0.493-0.697-0.493c-0.943,0-2.568,0.809-3.637,2.167c-1.597,2.09-7.191,8.365-7.254,8.429l-0.028,0.042
			l-0.035-0.021c0,0-0.07-0.021-0.091-0.113c-0.113-0.289,0.035-1.295,2.16-4.665c2.709-4.271,4.995-9.906,5.15-10.265
			c-0.056-0.19-0.394-1.696-1.569-1.696c-0.746,0-1.682,0.577-2.772,1.738c-3.708,3.933-14.859,20.192-14.972,20.368l-0.105-0.077
			c0.141-0.239,14.043-22.951,14.972-24.576c0.316-0.549,0.316-1.182,0.021-1.688c-0.267-0.472-0.725-0.739-1.252-0.739
			c-0.542,0-1.147,0.303-1.71,0.872c-2.076,2.076-11.841,15.535-11.926,15.669l-0.042,0.056l-0.049-0.042
			c-0.084-0.049-0.626-0.71,3.729-7.57c0.014-0.028,1.407-1.893,2.097-3.272c0.099-0.197,0.113-0.352,0.035-0.472
			c-0.12-0.218-0.542-0.31-1.295-0.31c-0.514,0-1.133,0.042-1.661,0.085c-0.464,0.049-0.914,0.077-1.231,0.077
			c-1.33,0-6.044-0.218-6.529-0.225l-3.68,5.769c0.528,0.331,4.186,2.723,4.186,4.482c0,0.373-0.021,0.922-0.056,1.548
			c-0.148,2.617-0.359,6.979,0.753,9.407c1.386,2.99,3.461,4.848,4.833,5.333c0.267-0.436,2.364-3.743,3.032-4.193
			c0.141-0.099,0.26-0.063,0.31,0.042C143.596,157.526,142.772,160.108,141.267,162.395"/>
	</g>
	<g>
		<path fill="#73B9E6" d="M128.764,139.962l3.75-6.079c0,0-4.454-0.246-6.086-1.168c-1.646-0.943-2.505-1.259-3.441-2.195
			c-0.943-0.936-1.717-1.252-4.046,2.498c-2.35,3.743-11.405,17.786-12.657,17.786c-1.245,0,10.307-17.913,12.024-20.889
			c0,0,1.245-0.95,0-2.04c-1.245-1.098-3.905-2.343-3.905-2.343s-4.369,7.015-5.298,7.183c-0.943,0.148,4.045-7.5,4.355-8.274
			c0.324-0.788-3.272-3.124-4.2-3.595c-0.943-0.464-9.372,13.572-10.772,14.986c-1.407,1.393,0.478-3.588,8.584-15.76
			c0,0-0.155-1.245-1.548-2.498c-1.428-1.245-4.383-3.743-4.383-3.743s-23.408,34.018-24.182,35.411
			c-0.774,1.414-1.886,2.188,0,3.75c1.879,1.555,2.181,0.929,3.898-1.562c1.717-2.498,14.669-20.91,15.457-20.586
			c0.767,0.303-13.122,23.865-14.057,24.956c-0.929,1.098-0.774,1.724,0.478,2.807c1.245,1.098,2.026,1.886,3.279,0
			c1.245-1.872,15.127-22.423,16.056-21.825c0.95,0.598-15.436,23.38-15.598,24.787c-0.148,1.4,2.659,3.75,3.75,3.124
			c1.098-0.633,15.134-22.155,15.908-22.001c0.788,0.162-13.1,22.31-13.734,24.344c-0.612,2.04,1.252,2.04,3.595,2.04
			c0,0,0.943-0.007,3.602-3.286c2.653-3.279,23.077-24.182,25.42-24.97C127.364,140.046,127.364,139.49,128.764,139.962"/>
	</g>
	<g>
		<path fill="#73B9E6" d="M96.001,169.14L96.001,169.14c-1.646,0-3.054,0-3.567-0.704c-0.253-0.324-0.274-0.802-0.091-1.421
			c0.281-0.936,3.243-5.91,6.389-11.187c3.307-5.558,7.416-12.467,7.373-13.065c-0.542,0.19-4.988,6.656-8.59,11.883
			c-3.462,5.038-6.733,9.808-7.254,10.096c-0.141,0.091-0.281,0.12-0.472,0.12c-0.71,0-1.766-0.612-2.554-1.499
			c-0.584-0.647-0.873-1.309-0.823-1.801c0.077-0.626,3.11-5.143,6.649-10.378c4.066-6.044,9.146-13.565,8.992-14.332v-0.021
			c-1.203,0-13.593,18.222-15.999,21.818c-0.521,0.788-0.985,1.154-1.492,1.154c-0.563,0-1.091-0.457-1.759-1.041l-0.106-0.106
			c-1.316-1.14-1.428-1.801-0.478-2.892c0.464-0.549,4.179-6.761,7.514-12.545c4.96-8.576,6.628-11.982,6.536-12.326
			c-0.964,0.127-12.967,17.104-15.359,20.572l-0.176,0.268c-1.006,1.449-1.499,2.174-2.202,2.174c-0.408,0-0.873-0.253-1.611-0.866
			c-1.597-1.337-1.084-2.132-0.436-3.159c0.155-0.204,0.281-0.429,0.422-0.662c0.76-1.393,23.95-35.087,24.189-35.432l0.028-0.056
			l0.056,0.042c0.035,0.028,2.983,2.519,4.383,3.743c1.407,1.252,1.569,2.484,1.576,2.54v0.028l-0.007,0.021
			c-6.86,10.279-9.238,15.415-8.985,15.88c0,0,0.091,0,0.295-0.197c0.542-0.542,2.09-2.913,3.905-5.671
			c3.581-5.474,6.17-9.343,6.86-9.343c0.035,0,0.056,0.007,0.078,0.014c0.661,0.324,4.608,2.758,4.243,3.673
			c-0.091,0.246-0.612,1.104-1.288,2.216c-1.252,2.09-3.391,5.6-3.173,5.966c0,0,0,0.007,0.028,0
			c0.732-0.127,4.052-5.192,5.249-7.148l0.042-0.056l0.049,0.028c0.035,0.014,2.674,1.266,3.912,2.35
			c0.401,0.345,0.591,0.725,0.584,1.098c-0.028,0.584-0.485,0.978-0.577,1.041c-0.436,0.746-1.45,2.385-2.744,4.454
			c-3.384,5.474-9.709,15.647-9.343,16.323l0.014,0.007c1.133,0,9.625-13.016,12.587-17.758c1.386-2.195,2.294-3.131,3.046-3.131
			c0.408,0,0.753,0.253,1.126,0.633c0.683,0.675,1.316,1.02,2.273,1.548c0.338,0.169,0.718,0.38,1.14,0.619
			c1.611,0.922,6.009,1.161,6.058,1.161l0.12,0.007l-3.835,6.22l-0.049-0.007c-0.922-0.316-1.203-0.176-2.012,0.176
			c-0.387,0.176-0.922,0.408-1.703,0.675c-2.23,0.746-22.472,21.318-25.392,24.942C96.986,169.076,96.029,169.14,96.001,169.14
			 M106.133,142.636h0.014c0.035,0,0.049,0.014,0.077,0.049c0.176,0.436-2.814,5.502-7.401,13.22
			c-3.117,5.256-6.086,10.223-6.36,11.152c-0.169,0.57-0.155,1.006,0.07,1.302c0.485,0.647,1.857,0.647,3.455,0.647
			c0,0,0.985-0.106,3.539-3.264c2.378-2.927,23.07-24.189,25.476-24.984c0.767-0.253,1.281-0.485,1.675-0.675
			c0.774-0.338,1.133-0.485,2.054-0.197l3.666-5.945c-0.697-0.056-4.496-0.316-6.001-1.175c-0.443-0.246-0.816-0.443-1.14-0.626
			c-0.964-0.528-1.618-0.873-2.315-1.576c-0.345-0.352-0.661-0.584-1.027-0.584c-0.689,0-1.604,0.957-2.927,3.074
			c-0.12,0.176-11.229,17.807-12.693,17.807c-0.063,0-0.113-0.014-0.134-0.063c-0.387-0.689,4.2-8.161,9.343-16.442
			c1.302-2.104,2.315-3.743,2.744-4.461l0.021-0.028c0,0,0.514-0.401,0.535-0.957c0-0.331-0.169-0.668-0.535-0.985
			c-1.14-1.006-3.462-2.125-3.834-2.315c-0.422,0.675-4.404,7-5.319,7.155c-0.077,0.021-0.141-0.014-0.169-0.056
			c-0.225-0.401,1.302-3.011,3.18-6.093c0.661-1.105,1.189-1.97,1.287-2.202c0.268-0.675-3.103-2.962-4.186-3.504l-0.021-0.007
			c-0.675,0-4.179,5.368-6.754,9.28c-1.815,2.772-3.37,5.143-3.905,5.692c-0.232,0.225-0.345,0.253-0.387,0.253
			c-0.056,0-0.113-0.028-0.134-0.084c-0.317-0.584,2.273-5.917,8.985-15.985c-0.042-0.183-0.281-1.309-1.534-2.441
			c-1.287-1.147-3.919-3.349-4.32-3.694c-1.098,1.597-23.38,33.997-24.14,35.348c-0.141,0.246-0.281,0.471-0.415,0.682
			c-0.64,1.006-1.104,1.731,0.394,2.99c0.725,0.591,1.168,0.83,1.534,0.83c0.64,0,1.161-0.753,2.097-2.104l0.183-0.274
			c0.134-0.211,14.374-20.629,15.472-20.629c0.021,0,0.028,0,0.049,0.007c0.014,0.007,0.056,0.028,0.07,0.084
			c0.148,0.661-4.067,8.119-6.606,12.524c-3.37,5.847-7.008,11.897-7.486,12.453c-0.879,1.048-0.788,1.632,0.464,2.737l0.12,0.091
			c0.647,0.563,1.147,1.013,1.667,1.013c0.45,0,0.893-0.359,1.386-1.105c0.162-0.218,14.691-21.86,16.084-21.86
			c0,0,0.063,0,0.07,0.014c0.042,0.028,0.063,0.049,0.078,0.091c0.169,0.809-4.51,7.746-9.006,14.437
			c-3.384,4.995-6.557,9.73-6.628,10.329c-0.049,0.443,0.225,1.076,0.795,1.696c0.746,0.844,1.787,1.456,2.448,1.456
			c0.155,0,0.296-0.035,0.408-0.091c0.485-0.289,3.905-5.263,7.219-10.089C102.383,147.357,105.661,142.636,106.133,142.636"/>
	</g>
	<g>
		<path fill="#73B9E6" d="M118.776,102.749h-5.931c0,0,1.724,3.588,2.969,4.369C115.814,107.118,118.304,105.718,118.776,102.749"/>
	</g>
	<g>
		<path fill="#73B9E6" d="M115.807,107.196l-0.021-0.028c-1.252-0.788-2.934-4.25-2.99-4.383l-0.056-0.105h6.114l-0.014,0.077
			c-0.457,2.962-2.976,4.404-2.99,4.411L115.807,107.196z M112.943,102.813c0.281,0.556,1.766,3.504,2.878,4.221
			c0.281-0.169,2.427-1.562,2.878-4.221H112.943z"/>
	</g>
	<g>
		<path fill="#73B9E6" d="M150.454,54.844c0,0,4.679,0.317,6.55-1.717c1.871-2.033,7.169-10.455,7.95-11.686
			c0.788-1.259-0.929-5.164-4.362-1.414C157.152,43.777,150.454,54.844,150.454,54.844"/>
	</g>
	<g>
		<path fill="#73B9E6" d="M151.131,54.929L151.131,54.929c-0.422,0-0.689-0.014-0.689-0.014l-0.099-0.007l0.056-0.091
			c0.063-0.113,6.754-11.13,10.146-14.831c0.978-1.069,1.892-1.611,2.716-1.611c0.908,0,1.4,0.654,1.618,1.041
			c0.38,0.69,0.443,1.548,0.134,2.048c-0.232,0.387-5.98,9.562-7.964,11.707C155.585,54.76,152.426,54.929,151.131,54.929
			 M150.568,54.788c0.113,0.007,0.303,0.021,0.563,0.021c1.266,0,4.39-0.169,5.826-1.717c1.97-2.139,7.704-11.313,7.957-11.7
			c0.281-0.443,0.211-1.273-0.141-1.921c-0.211-0.359-0.675-0.964-1.513-0.964c-0.788,0-1.689,0.528-2.617,1.569
			C157.421,43.587,151.222,53.712,150.568,54.788"/>
	</g>
	<g>
		<path fill="#73B9E6" d="M132.664,64.832c0,0,20.488-33.771,22.31-36.508c1.245-1.871-1.281-3.082-2.962-2.202
			c0,0-0.936-0.295-2.498-0.295c-1.013,0-4.981-0.464-8.429,1.879c-3.433,2.336-6.234,3.11-6.543,9.822
			c-0.317,6.705,0.141,8.9-5.474,11.229c0,0-5.298,6.557-5.924,7.029c-0.626,0.464,3.279-5.143,3.588-6.705
			c0.324-1.569-3.131-2.653-4.679,0.626c-1.562,3.272-3.919,7.022-3.912,7.95c0,0.936,5.629,0.317,6.403,0.788
			c0,0,7.177-9.688,8.591-10.462c1.407-0.781-6.248,8.745-7.191,11.553C125.945,59.534,130.919,62.067,132.664,64.832"/>
	</g>
	<g>
		<path fill="#73B9E6" d="M132.666,64.962l-0.049-0.091c-1.717-2.716-6.642-5.263-6.698-5.284l-0.035-0.028l0.007-0.049
			c0.5-1.485,2.849-4.833,4.742-7.514c1.281-1.829,2.603-3.694,2.603-3.989c0,0-0.035,0.014-0.078,0.028
			c-1.386,0.76-8.485,10.343-8.555,10.448l-0.035,0.042l-0.049-0.035c-0.316-0.19-1.463-0.19-2.688-0.204
			c-2.251,0-3.75-0.056-3.75-0.626c-0.007-0.577,0.837-2.146,1.907-4.13c0.654-1.21,1.393-2.575,2.005-3.855
			c0.929-1.956,2.371-2.174,2.955-2.174c0.668,0,1.259,0.253,1.604,0.668c0.225,0.274,0.317,0.598,0.239,0.922
			c-0.176,0.922-1.576,3.187-2.589,4.848c-0.443,0.732-0.866,1.414-1.006,1.724c0.901-0.851,5.783-6.874,5.819-6.944l0.042-0.007
			c5.066-2.118,5.129-4.116,5.333-9.463c0.028-0.535,0.056-1.112,0.077-1.724c0.268-5.84,2.463-7.233,5.249-9.006
			c0.422-0.281,0.879-0.563,1.344-0.872c1.857-1.266,4.193-1.914,6.944-1.914c0.422,0,0.788,0.014,1.062,0.028h0.443
			c1.414,0,2.329,0.239,2.491,0.295c0.373-0.197,0.795-0.295,1.238-0.295c0.879,0,1.661,0.394,1.977,0.992
			c0.183,0.331,0.295,0.879-0.19,1.611c-1.794,2.695-22.099,36.164-22.317,36.508L132.666,64.962z M126.032,59.502
			c0.52,0.274,4.939,2.653,6.635,5.207c1.161-1.907,20.495-33.793,22.254-36.424c0.352-0.528,0.415-1.041,0.197-1.477
			c-0.303-0.549-1.055-0.915-1.879-0.915c-0.429,0-0.844,0.099-1.196,0.288l-0.028,0.007L152,26.181c0,0-0.95-0.288-2.477-0.288
			c-0.127,0-0.267-0.007-0.457-0.014c-0.274-0.014-0.654-0.021-1.062-0.021c-2.723,0-5.038,0.633-6.888,1.9
			c-0.443,0.303-0.908,0.591-1.337,0.866c-2.744,1.752-4.911,3.131-5.185,8.914c-0.028,0.598-0.049,1.175-0.07,1.717
			c-0.211,5.396-0.281,7.423-5.403,9.555c-0.345,0.415-5.319,6.564-5.938,7.029c-0.035,0.028-0.07,0.035-0.098,0.035h-0.028
			l-0.035-0.021c-0.042-0.113,0.091-0.38,1.076-1.977c1.013-1.646,2.399-3.919,2.575-4.812c0.049-0.274-0.021-0.57-0.218-0.816
			c-0.31-0.373-0.894-0.612-1.506-0.612c-0.556,0-1.928,0.204-2.842,2.104c-0.598,1.273-1.351,2.645-2.012,3.849
			c-1.006,1.892-1.892,3.525-1.879,4.074c0,0.485,2.012,0.5,3.631,0.507c1.224,0,2.294,0.007,2.688,0.19
			c0.591-0.788,7.204-9.674,8.563-10.427c0.141-0.077,0.232-0.07,0.253,0.007c0.12,0.225-0.612,1.309-2.603,4.13
			C128.874,54.71,126.552,58.01,126.032,59.502"/>
	</g>
	<g>
		<path fill="#73B9E6" d="M114.875,57.659l8.274-11.011c0,0-4.074-4.44-5.009-5.375c-0.922-0.943-10.441,15.45-10.751,16.386
			H114.875z"/>
	</g>
	<g>
		<path fill="#73B9E6" d="M114.916,57.73h-7.613l0.014-0.091c0.148-0.443,2.484-4.552,4.953-8.576
			c2.223-3.595,5.016-7.894,5.783-7.894c0.049,0,0.105,0.014,0.134,0.056c0.929,0.936,4.96,5.333,4.996,5.382l0.042,0.042
			l-0.028,0.035L114.916,57.73z M107.479,57.596h7.359l8.225-10.933c-0.415-0.443-4.088-4.461-4.974-5.347
			c0-0.007-0.028-0.007-0.028-0.007C116.816,41.308,108.176,55.964,107.479,57.596"/>
	</g>
	<g>
		<path fill="#73B9E6" d="M105.523,57.659c0,0,9.822-16.843,10.905-18.251c1.112-1.414-1.703-2.033-3.729,0.774
			c-2.033,2.807-11.081,15.633-13.579,14.676c0,0-1.414-0.028,5.776-8.211c7.169-8.19,7.641-8.436,7.641-8.436
			s2.026-0.837-0.471-3.328c-2.491-2.505-14.979-14.986-14.979-14.986s-3.581-2.653-6.395,0
			c-2.807,2.645-17.955,17.941-30.113,37.76h6.86c0,0,12.798-18.405,14.205-18.574c1.4-0.148-11.074,18.574-11.074,18.574h6.853
			c0,0,9.372-19.665,17.955-28.086c0,0,1.71-0.633,0,2.033c-1.738,2.638-14.669,22.029-15.296,23.253
			c-0.619,1.245-1.562,2.8-1.562,2.8h3.124c0,0,17.16-22.155,20.903-26.37c0,0,2.491-1.098-2.019,5.143
			c-4.524,6.241-16.71,21.079-16.858,21.227C83.515,57.807,105.523,57.659,105.523,57.659"/>
	</g>
	<g>
		<path fill="#73B9E6" d="M89.261,57.79c-5.607,0-5.628-0.035-5.643-0.106l-0.028-0.035l0.042-0.035
			c0.049-0.063,12.193-14.817,16.836-21.22c2.68-3.666,2.814-4.7,2.68-4.988c-0.063-0.085-0.141-0.127-0.26-0.127
			c-0.134,0-0.26,0.042-0.31,0.063c-3.715,4.186-20.713,26.131-20.882,26.363l-0.028,0.021h-3.265l0.063-0.099
			c0-0.014,0.943-1.576,1.562-2.793c0.422-0.83,6.48-9.991,10.919-16.66c2.125-3.215,3.82-5.748,4.355-6.607
			c0.788-1.203,0.83-1.667,0.718-1.857c-0.042-0.091-0.141-0.141-0.288-0.141c-0.148,0-0.289,0.035-0.324,0.063
			c-8.478,8.323-17.821,27.854-17.934,28.051l-0.007,0.042H70.44l0.07-0.099c4.693-7.043,11.531-17.765,11.159-18.462l-0.007-0.014
			c-1.105,0.12-9.758,12.186-14.163,18.553l-0.021,0.021h-7.015l0.049-0.099C71.707,39.42,86.067,24.18,90.64,19.846
			c0.844-0.788,1.843-1.189,2.941-1.189c1.907,0,3.532,1.168,3.546,1.182c0.007,0.007,12.488,12.488,14.993,15
			c0.957,0.957,1.372,1.78,1.224,2.47c-0.12,0.675-0.753,0.95-0.753,0.95c-0.056,0.014-0.675,0.485-7.655,8.429
			c-5.804,6.635-5.952,7.852-5.847,8.077c0,0.028,0.028,0.042,0.028,0.042h0.014c0.091,0.028,0.169,0.049,0.281,0.049
			c2.667,0,10.329-10.694,12.854-14.198l0.373-0.514c1.062-1.471,2.329-2.005,3.145-2.005c0.45,0,0.767,0.162,0.908,0.429
			c0.113,0.239,0.035,0.556-0.204,0.872c-1.069,1.379-10.828,18.075-10.912,18.251l-0.035,0.035h-0.028
			C105.408,57.727,95.663,57.79,89.261,57.79 M83.794,57.614c0.331,0.028,1.632,0.042,5.467,0.042
			c6.206,0,15.549-0.056,16.217-0.063c0.479-0.823,9.843-16.865,10.905-18.23c0.218-0.274,0.288-0.542,0.19-0.746
			c-0.113-0.218-0.401-0.345-0.788-0.345c-0.795,0-2.005,0.507-3.047,1.949l-0.352,0.507c-2.554,3.518-10.258,14.247-12.974,14.247
			c-0.12,0-0.218-0.014-0.309-0.049c-0.035-0.007-0.106-0.028-0.141-0.105c-0.148-0.373,0.387-1.935,5.875-8.211
			c7.113-8.105,7.648-8.45,7.669-8.45c0,0,0.598-0.26,0.718-0.879c0.12-0.647-0.281-1.435-1.21-2.364
			c-2.498-2.491-14.972-14.972-14.972-14.972c-0.007-0.007-1.597-1.161-3.462-1.161c-1.069,0-2.026,0.394-2.849,1.161
			c-4.573,4.327-18.87,19.496-30.036,37.648h6.719c0.753-1.076,12.819-18.405,14.219-18.567c0.077,0,0.127,0.021,0.155,0.078
			c0.52,0.971-9.625,16.274-11.109,18.49h6.712c0.457-0.964,9.618-19.911,17.941-28.065l0.014-0.021c0,0,0.19-0.063,0.387-0.063
			c0.197,0,0.338,0.063,0.408,0.204c0.183,0.324-0.063,0.964-0.718,1.991c-0.549,0.851-2.237,3.398-4.376,6.599
			c-4.418,6.691-10.49,15.83-10.898,16.661c-0.549,1.041-1.302,2.336-1.513,2.695h2.976c0.668-0.858,17.238-22.247,20.889-26.349
			l0.014-0.021c0,0,0.183-0.07,0.373-0.07c0.169,0,0.295,0.07,0.359,0.197c0.295,0.556-0.612,2.286-2.667,5.122
			C96.121,42.621,84.807,56.376,83.794,57.614"/>
	</g>
	<g>
		<path fill="#73B9E6" d="M59.181,57.729h-6.867c0,0,4.2-6.663,5.615-8.281c1.4-1.618,2.026-0.837,4.2-1.463
			c2.188-0.626,3.124-3.75,4.067-3.433C67.139,44.861,65.105,48.906,59.181,57.729"/>
	</g>
	<g>
		<path fill="#73B9E6" d="M59.203,57.779h-7.015l0.07-0.091c0.035-0.063,4.228-6.677,5.615-8.281
			c0.915-1.069,1.513-1.105,2.42-1.189c0.493-0.028,1.062-0.084,1.829-0.295c1.168-0.331,1.984-1.414,2.624-2.28
			c0.507-0.661,0.901-1.182,1.323-1.182c0.035,0,0.085,0.014,0.141,0.028c0.113,0.035,0.19,0.12,0.225,0.232
			c0.352,1.013-2.082,5.396-7.204,13.037L59.203,57.779z M52.421,57.659h6.712c6.353-9.449,7.416-12.221,7.177-12.896
			c-0.021-0.07-0.07-0.12-0.141-0.148c-0.366-0.134-0.802,0.443-1.316,1.112c-0.654,0.879-1.478,1.977-2.702,2.322
			c-0.781,0.218-1.372,0.268-1.844,0.303c-0.865,0.07-1.435,0.113-2.336,1.14C56.677,50.982,52.955,56.829,52.421,57.659"/>
	</g>
	<g>
		<path fill="#73B9E6" d="M50.273,57.729c0,0,5.319-8.028,5.945-9.118c0.626-1.098,0.148-2.413-0.95-3.159
			c-1.091-0.746-1.865-2.083-1.245-4.214c0.605-2.146,0.901-8.077-0.64-9.484c0,0-0.605-1.091-3.736,3.75
			c-3.11,4.834-11.546,16.851-12.32,17.16c-0.781,0.316-1.097,0,1.562-3.905c2.652-3.898,11.7-16.541,12.01-18.251
			c0.324-1.71-2.026-4.355-6.234-4.446c0,0-0.316,0.077-3.433,5.066c-3.131,5.002-10.462,16.231-11.391,16.548
			c-0.943,0.31,0.155-2.188,3.595-7.493c3.426-5.298,7.331-11.862,7.796-13.108c0.471-1.245-2.498-1.407-5.002,0.31
			c-2.498,1.724-9.984,12.559-10.293,13.853c-0.317,1.281-1.091,7.683,4.376,11.426c0,0,10.61-16.077,11.693-16.077
			c1.091,0-10.131,15.612-9.512,17.012c0.612,1.407,7.233,1.717,8.59-0.31c1.386-2.026,6.86-10.772,7.789-11.398
			c0.943-0.612,1.562-0.612,0.626,1.104c-0.943,1.71-6.86,9.667-6.86,10.603c0,0.943,2.026,1.091,3.581,2.343
			C47.783,57.194,48.254,57.729,50.273,57.729"/>
	</g>
	<g>
		<path fill="#73B9E6" d="M50.317,57.796h-0.042c-1.879,0-2.441-0.472-3.715-1.499c-0.113-0.091-0.239-0.197-0.38-0.303
			c-0.668-0.542-1.435-0.879-2.09-1.175c-0.851-0.359-1.527-0.654-1.527-1.217c0-0.598,2.146-3.673,4.2-6.649
			c1.196-1.717,2.315-3.335,2.674-3.996c0.514-0.922,0.478-1.224,0.429-1.316c-0.014-0.028-0.035-0.056-0.134-0.056
			c-0.169,0-0.464,0.12-0.823,0.359c-0.683,0.457-3.87,5.411-5.987,8.682c-0.76,1.154-1.407,2.174-1.759,2.695
			c-0.739,1.091-2.899,1.471-4.651,1.471c-1.71,0-3.722-0.352-4.081-1.168c-0.338-0.725,2.111-4.644,5.579-10.096
			c1.97-3.096,4.193-6.599,4.003-6.867c-0.788,0-7.394,9.59-11.651,16.035l-0.042,0.063l-0.056-0.035
			c-6.079-4.179-4.411-11.433-4.383-11.503c0.295-1.266,7.817-12.158,10.321-13.881c1.161-0.802,2.547-1.273,3.722-1.273
			c0.654,0,1.119,0.148,1.316,0.436c0.113,0.169,0.141,0.366,0.049,0.591c-0.485,1.266-4.334,7.76-7.81,13.129
			c-3.968,6.135-3.968,7.191-3.87,7.359c0.014,0.035,0.035,0.056,0.091,0.056c0,0,0.077-0.007,0.127-0.021
			c0.851-0.295,7.838-10.905,11.349-16.52c2.983-4.777,3.412-5.08,3.476-5.094c2.35,0.049,4.411,0.922,5.572,2.322
			c0.584,0.739,0.866,1.527,0.732,2.195c-0.239,1.365-5.861,9.428-9.576,14.761c-1.006,1.442-1.871,2.681-2.442,3.518
			c-1.541,2.259-2.237,3.56-2.082,3.842c0.007,0.021,0.035,0.042,0.113,0.042c0.085,0,0.19-0.021,0.331-0.07
			c0.711-0.296,8.957-11.975,12.299-17.146c2.069-3.215,3.075-3.877,3.546-3.877c0.19,0,0.267,0.091,0.281,0.12
			c1.576,1.449,1.28,7.437,0.661,9.54c-0.661,2.287,0.288,3.518,1.217,4.158c1.168,0.788,1.576,2.16,0.957,3.236
			c-0.612,1.084-5.875,9.041-5.938,9.111L50.317,57.796z M49.733,41.452c0.134,0,0.218,0.063,0.253,0.127
			c0.12,0.218-0.014,0.683-0.422,1.435c-0.373,0.675-1.442,2.223-2.695,4.017c-1.857,2.688-4.179,6.008-4.179,6.571
			c0,0.485,0.647,0.76,1.442,1.112c0.64,0.274,1.442,0.626,2.125,1.182c0.141,0.106,0.267,0.204,0.394,0.31
			c1.273,1.027,1.787,1.456,3.595,1.456c0.345-0.528,5.312-8.042,5.91-9.097c0.584-0.999,0.19-2.301-0.915-3.061
			c-0.964-0.661-1.963-1.928-1.273-4.292c0.598-2.083,0.908-8.014-0.633-9.407v-0.021c0,0-0.056-0.077-0.19-0.077
			c-0.359,0-1.288,0.507-3.433,3.834c-3.096,4.784-11.56,16.865-12.348,17.188c-0.176,0.056-0.295,0.091-0.394,0.091
			c-0.126,0-0.197-0.063-0.225-0.127c-0.134-0.232,0-0.901,2.09-3.961c0.57-0.837,1.428-2.083,2.441-3.518
			c3.708-5.34,9.315-13.382,9.562-14.726c0.106-0.626-0.148-1.386-0.718-2.082c-1.119-1.379-3.145-2.223-5.439-2.273
			c-0.07,0.056-0.633,0.612-3.391,5.023c-2.582,4.13-10.406,16.231-11.426,16.569c-0.063,0.028-0.113,0.042-0.162,0.042
			c-0.127,0-0.176-0.077-0.204-0.127c-0.387-0.703,2.258-4.995,3.877-7.5c3.398-5.249,7.331-11.855,7.803-13.087
			c0.049-0.19,0.049-0.352-0.042-0.485c-0.176-0.253-0.619-0.394-1.21-0.394c-0.887,0-2.294,0.338-3.652,1.26
			c-2.498,1.724-9.962,12.552-10.272,13.811c-0.021,0.078-1.66,7.198,4.285,11.321c1.252-1.893,10.631-16.034,11.728-16.034
			c0.035,0,0.091,0.028,0.113,0.063c0.204,0.366-1.386,2.899-4.01,7c-2.632,4.116-5.903,9.238-5.572,9.977
			c0.296,0.633,1.956,1.098,3.968,1.098c1.724,0,3.82-0.38,4.531-1.414c0.359-0.528,1.006-1.534,1.759-2.695
			c2.251-3.483,5.333-8.26,6.037-8.717C49.233,41.593,49.522,41.452,49.733,41.452"/>
	</g>
	<g>
		<path fill="#73B9E6" d="M25.711,87.616c0,0,1.485-1.717,1.154-2.969c-0.303-1.238-2.336,2.195-3.278,2.969
			c-0.922,0.781-4.362,4.06-4.362,4.06s-0.774,2.329,1.407,1.717C22.812,92.759,25.711,87.616,25.711,87.616"/>
	</g>
	<g>
		<path fill="#73B9E6" d="M19.976,93.564L19.976,93.564c-0.338,0-0.591-0.12-0.76-0.345c-0.38-0.535-0.056-1.527-0.049-1.562
			l0.007-0.042c0.042-0.021,3.448-3.286,4.39-4.053c0.303-0.253,0.739-0.809,1.182-1.393c0.76-0.95,1.456-1.857,1.879-1.857
			c0.105,0,0.239,0.063,0.316,0.317c0.31,1.273-1.119,2.955-1.182,3.025c-0.113,0.204-2.92,5.171-5.108,5.805
			C20.398,93.522,20.173,93.564,19.976,93.564 M19.294,91.707c-0.049,0.127-0.303,0.992,0.035,1.442
			c0.127,0.183,0.345,0.288,0.647,0.288c0.183,0,0.401-0.049,0.64-0.113c2.125-0.605,5.016-5.692,5.031-5.741
			c0.035-0.035,1.463-1.717,1.161-2.92c-0.049-0.225-0.155-0.225-0.155-0.225c-0.387,0-1.133,0.971-1.801,1.815
			c-0.464,0.584-0.908,1.147-1.21,1.414C22.741,88.414,19.512,91.496,19.294,91.707"/>
	</g>
	<g>
		<path fill="#73B9E6" d="M167.452,90.268c-2.181-2.188-17.47-17.47-18.251-17.948c-0.767-0.464-10.919,14.986-10.919,14.986
			s-2.343,0.774,0.612-3.588c2.969-4.376,8.907-12.495,8.907-12.495s0.303-0.929-2.343-2.948c-2.652-2.033-7.331-6.571-4.679-10.3
			c2.652-3.736,4.517-4.06,8.112-3.447c0,0,10.765-17.153,12.017-19.489c1.245-2.343-2.188-3.595-4.841-0.633
			c-2.652,2.969-22.627,32.153-22.627,32.153s1.562,2.174,1.724,4.046c0.148,1.879,1.386,15.45-0.795,21.543
			c-2.174,6.079-6.698,10.603-13.1,10.448c0,0-3.279,4.214-3.117,4.988c0.155,0.781,8.274,8.112,9.21,8.267
			c0.936,0.169,19.967-27.925,22.62-29.325c0,0,1.245-0.781-2.033,3.898c-3.264,4.693-16.062,23.408-16.998,24.97
			c-0.943,1.555-2.343,2.033-0.788,3.433c1.562,1.393,2.652,2.955,4.067,0.774c1.393-2.174,19.186-27.615,20.446-28.867
			c1.231-1.245,2.638-1.245,1.393,0.626c-1.252,1.871-10.926,13.881-10.3,14.36c0.619,0.464,9.681-10.758,11.074-11.243
			c1.4-0.464,1.112,1.098-0.626,2.969c-1.71,1.872-21.529,22.627-21.987,24.027c-0.479,1.414,3.278,4.214,4.214,3.588
			c0.936-0.619,10.293-17.477,11.848-17.315c1.569,0.162-11.398,18.729-11.398,18.729s0,0.303,1.098,0.936
			c0,0,23.401-26.067,27.46-29.346C171.512,94.792,169.626,92.456,167.452,90.268 M131.261,102.749
			c-0.788-1.091,5.467-6.712,5.467-6.712C136.101,96.818,132.035,103.84,131.261,102.749"/>
	</g>
	<g>
		<path fill="#73B9E6" d="M140.008,127.487l-0.042-0.028c-1.091-0.626-1.126-0.957-1.126-0.992v-0.021l0.014-0.014
			c3.356-4.819,11.975-17.547,11.482-18.581c0-0.021-0.021-0.042-0.056-0.042c-0.992,0-5.143,6.761-8.175,11.7
			c-1.829,2.997-3.279,5.375-3.631,5.607c-0.105,0.063-0.246,0.099-0.387,0.099c-0.901,0-2.68-1.182-3.518-2.343
			c-0.38-0.556-0.528-1.041-0.408-1.414c0.38-1.147,13.065-14.571,19.151-21.023c1.463-1.548,2.526-2.667,2.857-3.026
			c1.238-1.358,1.618-2.385,1.463-2.751c-0.091-0.218-0.366-0.253-0.767-0.113c-0.683,0.232-3.208,3.061-5.678,5.818
			c-3.032,3.377-4.911,5.432-5.368,5.432c-0.042,0-0.063-0.007-0.091-0.035c-0.028-0.014-0.042-0.035-0.049-0.091
			c-0.091-0.654,3.272-5.094,7.352-10.392c1.45-1.893,2.61-3.391,2.976-3.947c0.563-0.844,0.5-1.175,0.443-1.273
			c-0.035-0.099-0.148-0.127-0.268-0.127c-0.316,0-0.886,0.267-1.47,0.844c-1.168,1.161-18.82,26.349-20.432,28.861
			c-0.493,0.753-0.971,1.119-1.492,1.119c-0.668,0-1.33-0.619-2.083-1.344c-0.19-0.176-0.38-0.359-0.584-0.542
			c-1.196-1.069-0.697-1.654-0.028-2.455c0.26-0.303,0.549-0.654,0.788-1.055c0.915-1.541,13.755-20.319,17.026-24.97
			c2.251-3.229,2.28-3.757,2.238-3.841l-0.007-0.007c-0.049,0-0.106,0.035-0.106,0.035c-1.485,0.774-7.957,9.723-13.67,17.61
			c-5.277,7.268-8.527,11.736-8.999,11.736h-0.014c-0.957-0.162-9.09-7.465-9.266-8.33c-0.162-0.788,3.004-4.869,3.131-5.038
			l0.035-0.028h0.021c0.105,0.007,0.211,0.007,0.324,0.007c5.699,0,10.357-3.799,12.721-10.42
			c1.358-3.778,1.639-11.334,0.795-21.262l-0.021-0.239c-0.148-1.829-1.675-3.996-1.703-4.031l-0.021-0.021l0.021-0.049
			c0.204-0.281,20.017-29.205,22.634-32.146c0.992-1.104,2.223-1.752,3.363-1.752c0.753,0,1.365,0.289,1.653,0.774
			c0.281,0.464,0.253,1.055-0.077,1.681c-1.231,2.308-11.904,19.334-12.017,19.51l-0.021,0.042l-0.042-0.014
			c-1.006-0.176-1.745-0.253-2.392-0.253c-2.244,0-3.771,0.992-5.664,3.659c-2.835,3.989,2.87,8.83,4.672,10.202
			c2.659,2.048,2.378,3.004,2.357,3.039v0.021c-0.056,0.078-5.966,8.161-8.893,12.481c-1.491,2.188-1.597,3.025-1.442,3.342
			c0.07,0.126,0.218,0.19,0.422,0.19c0.134,0,0.253-0.021,0.289-0.035c1.083-1.625,9.885-15,10.94-15c0,0,0.049,0.007,0.063,0.014
			c0.704,0.436,12.967,12.657,18.208,17.892l0.063,0.077c1.252,1.252,2.484,2.617,2.406,4.235c-0.07,1.189-0.844,2.392-2.406,3.645
			c-4.024,3.236-27.221,29.072-27.46,29.339L140.008,127.487z M138.974,126.481c0.021,0.07,0.162,0.352,1.013,0.837
			c1.013-1.14,23.492-26.117,27.432-29.304c1.527-1.238,2.301-2.399,2.364-3.56c0.077-1.555-1.133-2.899-2.371-4.144l-0.063-0.063
			c-5.242-5.242-17.491-17.449-18.18-17.864c-0.739,0-6.888,8.942-10.828,14.951l-0.021,0.014l-0.028,0.021
			c0,0-0.169,0.056-0.352,0.056c-0.253,0-0.436-0.099-0.521-0.274c-0.281-0.5,0.204-1.661,1.435-3.476
			c2.885-4.256,8.64-12.137,8.879-12.467c0.014-0.098,0.127-1.027-2.315-2.892c-1.836-1.407-7.591-6.283-4.7-10.392
			c1.921-2.702,3.483-3.701,5.769-3.701c0.647,0,1.372,0.078,2.378,0.239c0.549-0.887,10.779-17.195,11.982-19.454
			c0.309-0.584,0.338-1.133,0.091-1.555c-0.274-0.45-0.851-0.725-1.555-0.725c-1.105,0-2.301,0.626-3.279,1.724
			c-2.561,2.885-21.768,30.915-22.585,32.104c0.204,0.288,1.562,2.301,1.696,4.039l0.028,0.232
			c0.837,9.949,0.556,17.54-0.816,21.339c-1.105,3.089-2.786,5.678-4.862,7.493c-2.378,2.061-5.15,3.061-8.26,2.997
			c-0.915,1.182-3.208,4.306-3.089,4.911c0.148,0.788,8.274,8.077,9.147,8.232c0.45-0.042,4.749-5.959,8.893-11.693
			c5.72-7.901,12.207-16.858,13.684-17.646c0,0,0.091-0.056,0.197-0.056c0.049,0,0.084,0.028,0.113,0.078
			c0.063,0.12,0.225,0.436-2.251,3.982c-3.251,4.651-16.077,23.429-16.998,24.963c-0.253,0.422-0.549,0.76-0.795,1.062
			c-0.668,0.816-1.091,1.302,0.007,2.287c0.204,0.183,0.394,0.366,0.591,0.542c0.732,0.704,1.365,1.295,1.984,1.295
			c0.471,0,0.922-0.331,1.372-1.055c1.034-1.583,19.151-27.573,20.46-28.867c0.549-0.542,1.147-0.887,1.562-0.887
			c0.232,0,0.331,0.106,0.387,0.19c0.134,0.267-0.014,0.746-0.45,1.407c-0.387,0.577-1.527,2.061-2.983,3.947
			c-2.857,3.708-7.613,9.913-7.317,10.314c0.443,0,3.011-2.863,5.277-5.389c2.589-2.878,5.024-5.615,5.727-5.847
			c0.19-0.063,0.338-0.084,0.464-0.084c0.289,0,0.408,0.126,0.457,0.253c0.232,0.521-0.366,1.689-1.477,2.892
			c-0.338,0.373-1.386,1.492-2.857,3.039c-5.615,5.945-18.75,19.848-19.123,20.966c-0.113,0.338,0.028,0.788,0.394,1.295
			c0.83,1.147,2.533,2.301,3.405,2.301c0.127,0,0.246-0.021,0.317-0.078c0.324-0.211,1.85-2.702,3.602-5.565
			c3.208-5.249,7.198-11.764,8.267-11.764h0.028c0.078,0.014,0.127,0.042,0.169,0.105
			C151.061,109.102,139.656,125.496,138.974,126.481 M131.467,102.932c-0.106,0-0.197-0.042-0.253-0.141
			c-0.795-1.112,4.819-6.22,5.453-6.804l0.099,0.091c-0.134,0.176-0.45,0.675-0.851,1.295
			C134.204,100.054,132.297,102.932,131.467,102.932 M136.35,96.466c-1.921,1.773-5.608,5.446-5.038,6.248
			c0.035,0.049,0.105,0.085,0.155,0.085c0.83,0,3.103-3.567,4.334-5.488C136.019,96.98,136.202,96.698,136.35,96.466"/>
	</g>
	<g>
		<path fill="#73B9E6" d="M24.695,94.49c0,0-2.28,3.574-1.689,4.51c0.584,0.943,2.385,2.188,3.912,0
			c1.513-2.188,16.492-23.717,18.054-24.491c1.569-0.774-0.936,3.412-2.498,5.523c-1.555,2.118-14.817,21.157-14.817,22.718
			c0,1.555,2.336,4.06,3.581,2.188c1.259-1.886,15.612-21.846,16.865-22.943c1.245-1.091,2.336-0.774-0.943,4.214
			c-3.279,5.002-11.7,19.503-12.946,20.91c-1.252,1.414,0.211,3.264,1.892,4.052c1.689,0.781,9.491-13.107,11.053-14.36
			c1.562-1.238,0.774,1.576-1.091,4.06c-1.872,2.498-7.971,11.398-8.274,12.172c-0.317,0.781,2.547,3.124,3.3,2.505
			c0.767-0.633,18.546-28.248,21.199-30.12c2.652-1.864,2.652-1.562-1.717,5.15c-4.369,6.705-18.258,25.744-18.258,27.313
			c0,1.548,2.188,3.891,3.433,2.645c1.252-1.245,21.065-30.901,23.401-31.597c2.343-0.704-2.652,4.714-5.298,8.717
			c-2.652,4.003-13.888,20.692-15.295,22.416c-1.4,1.71-2.019,3.433,0.633,3.898c0,0,0.929,0.464,3.11-2.807
			c2.188-3.272,5.087-5.615,4.186-4.052c-0.893,1.562-4.805,6.128-4.96,6.888c-0.155,0.746,3.053,2.048,4.96,0
			c1.907-2.047,3.004-5.023,2.216-10.174c-0.781-5.15,3.272-11.482,9.822-11.074c5.699,0.352,9.055,3.433,9.055,3.433l6.557-7.648
			l-9.203-8.429h9.203c0,0,8.893-13.572,9.365-14.979l-4.883-0.148c0,0-4.798,8.584-6.36,8.731c-1.555,0.155,3.743-8.26,3.743-8.26
			H74.937c0,0-5.46,7.796-6.248,7.486c-0.788-0.324,4.214-7.81,4.214-7.81s-8.591-0.464-10.293-2.329c0,0-1.977-1.26-3.251,1.083
			c-1.287,2.336-6.269,11.707-9.238,13.734c-2.962,2.033,3.293-6.712,4.84-9.21c1.555-2.491,5.08-6.557,3.237-7.015
			c-1.829-0.471-8.077-3.44-9.639-5.305C47.005,64.215,37.479,69.675,24.695,94.49"/>
	</g>
	<g>
		<path fill="#73B9E6" d="M53.88,125.161c-1.062,0-1.977-0.415-2.287-0.795c-0.113-0.127-0.162-0.26-0.127-0.387
			c0.085-0.422,1.26-1.942,2.505-3.539c1.006-1.309,2.061-2.659,2.469-3.363c0.183-0.338,0.162-0.401,0.162-0.401
			c-0.38,0-2.505,1.907-4.235,4.517c-1.661,2.484-2.603,2.864-3.032,2.864c-0.078,0-0.148-0.021-0.148-0.021
			c-1.013-0.183-1.611-0.549-1.822-1.097c-0.253-0.69,0.134-1.667,1.14-2.906c1.421-1.731,12.791-18.63,15.289-22.423
			c0.858-1.288,1.935-2.688,2.983-4.06c1.604-2.097,3.131-4.095,2.899-4.538c-0.014-0.014-0.021-0.077-0.176-0.077
			c-0.078,0-0.19,0.028-0.317,0.063c-1.604,0.478-11.792,15.127-17.899,23.879c-2.955,4.243-5.094,7.31-5.481,7.704
			c-0.246,0.253-0.549,0.373-0.865,0.373c-1.273,0-2.681-1.836-2.681-3.068c0-1.034,5.678-9.161,11.166-17.026
			c2.87-4.095,5.565-7.957,7.092-10.314c2.097-3.222,3.701-5.699,3.518-6.016l-0.049-0.028c-0.253,0-0.985,0.507-1.654,0.985
			c-1.773,1.252-10.364,14.1-16.048,22.599c-2.835,4.236-4.89,7.296-5.143,7.507c-0.099,0.077-0.218,0.127-0.373,0.127
			c-0.802,0-2.237-1.077-2.807-1.928c-0.218-0.316-0.289-0.584-0.218-0.76c0.31-0.774,6.36-9.632,8.274-12.193
			c1.337-1.787,2.125-3.708,1.886-4.179c-0.042-0.063-0.084-0.084-0.084-0.084c-0.148,0-0.317,0.049-0.612,0.288
			c-0.563,0.472-1.984,2.638-3.637,5.143c-2.835,4.348-6.051,9.266-7.296,9.266c-0.063,0-0.134-0.007-0.176-0.042
			c-1.224-0.563-2.174-1.597-2.371-2.561c-0.134-0.57,0.035-1.133,0.436-1.59c0.689-0.774,3.525-5.488,6.543-10.483
			c2.427-4.01,4.932-8.182,6.395-10.413c2.259-3.448,2.251-4.327,2.118-4.538c-0.12-0.225-0.57-0.042-1.077,0.408
			c-1.203,1.041-15.493,20.903-16.843,22.908c-0.303,0.472-0.69,0.704-1.147,0.704c-1.238,0-2.568-1.71-2.568-2.913
			c0-1.618,13.544-20.994,14.838-22.753c1.358-1.829,3.229-4.953,2.969-5.474c-0.028-0.014-0.035-0.049-0.106-0.049
			c-0.063,0-0.162,0.035-0.281,0.091c-1.534,0.76-16.344,22.043-18.033,24.477c-0.563,0.816-1.231,1.231-1.956,1.231
			c-0.879,0-1.689-0.64-2.061-1.238c-0.612-0.957,1.583-4.44,1.681-4.594c10.891-21.1,19.756-28.762,23.077-28.762
			c0.387,0,0.711,0.126,0.908,0.359c1.541,1.857,7.803,4.827,9.597,5.277c0.267,0.07,0.443,0.225,0.521,0.443
			c0.331,0.872-1.062,2.842-2.399,4.756c-0.5,0.69-0.957,1.344-1.323,1.928c-0.316,0.507-0.823,1.266-1.407,2.153
			c-1.667,2.505-4.482,6.698-4.193,7.219c0.014,0.028,0.028,0.042,0.084,0.042c0.063,0,0.239-0.056,0.584-0.303
			c2.807-1.907,7.458-10.469,8.985-13.276l0.246-0.422c0.654-1.21,1.498-1.463,2.083-1.463c0.697,0,1.217,0.331,1.245,0.345
			l0.014,0.014c1.674,1.829,10.16,2.315,10.251,2.315l0.106,0.007l-0.049,0.099c-1.267,1.892-4.503,6.958-4.278,7.655
			c0.007,0.035,0.021,0.042,0.028,0.049c0.014,0.014,0.028,0.014,0.028,0.014c0.746,0,4.686-5.41,6.142-7.486l0.021-0.021h11.215
			l-0.063,0.098c-1.245,1.984-4.404,7.317-3.975,8.091c0.028,0.056,0.063,0.077,0.141,0.077h0.035
			c1.499-0.155,6.269-8.619,6.318-8.703l0.014-0.042l5.002,0.162l-0.028,0.084c-0.464,1.4-9.006,14.444-9.372,14.993l-0.028,0.028
			h-9.069l9.132,8.358l-6.635,7.753l-0.049-0.056c-0.049-0.028-3.405-3.075-9.006-3.412c-2.849-0.183-5.495,0.957-7.388,3.152
			c-1.864,2.181-2.786,5.192-2.385,7.852c0.697,4.58-0.014,7.831-2.223,10.216C55.667,124.964,54.618,125.161,53.88,125.161
			 M56.589,116.542c0.063,0,0.098,0.035,0.105,0.07c0.042,0.056,0.056,0.169-0.141,0.528c-0.415,0.718-1.463,2.069-2.491,3.37
			c-1.175,1.527-2.392,3.096-2.47,3.497c-0.028,0.099,0.042,0.204,0.091,0.268c0.289,0.373,1.168,0.76,2.195,0.76
			c0.71,0,1.731-0.19,2.561-1.076c2.188-2.364,2.878-5.579,2.202-10.124c-0.415-2.688,0.514-5.734,2.42-7.957
			c1.914-2.223,4.601-3.37,7.472-3.187c5.291,0.324,8.598,3.018,9.055,3.405l6.459-7.549l-9.287-8.499h9.343
			c0.45-0.689,8.584-13.136,9.308-14.852l-4.749-0.155c-0.373,0.675-4.855,8.591-6.395,8.738c-0.014,0.007-0.028,0.007-0.028,0.007
			c-0.176,0-0.246-0.085-0.274-0.148c-0.521-0.936,3.363-7.226,3.926-8.133H74.959c-0.626,0.893-5.284,7.5-6.213,7.5
			c0,0-0.056,0-0.085-0.014c-0.028-0.014-0.077-0.042-0.105-0.12c-0.267-0.858,3.658-6.818,4.228-7.683
			c-1.062-0.063-8.569-0.584-10.223-2.343c-0.063-0.042-0.549-0.324-1.168-0.324c-0.809,0-1.477,0.478-1.97,1.4l-0.239,0.415
			c-1.527,2.821-6.205,11.405-9.027,13.347c-0.303,0.204-0.528,0.303-0.662,0.303c-0.113,0-0.162-0.056-0.204-0.099
			c-0.288-0.563,1.731-3.666,4.193-7.359c0.584-0.887,1.104-1.646,1.428-2.146c0.366-0.584,0.823-1.245,1.309-1.942
			c1.273-1.794,2.695-3.82,2.392-4.644c-0.07-0.176-0.204-0.288-0.422-0.345c-1.872-0.471-8.084-3.419-9.688-5.319
			c-0.169-0.218-0.436-0.324-0.795-0.324c-1.386,0-4.299,1.618-8.323,6.142c-4.637,5.157-9.688,12.96-14.634,22.571
			c-0.028,0.042-2.258,3.56-1.689,4.446c0.352,0.57,1.126,1.175,1.949,1.175c0.675,0,1.302-0.387,1.864-1.182
			c1.675-2.413,16.499-23.731,18.075-24.512c0.134-0.063,0.239-0.099,0.331-0.099c0.127,0,0.19,0.063,0.211,0.127
			c0.324,0.619-1.731,3.912-2.955,5.6c-1.787,2.413-14.817,21.178-14.817,22.676c0,1.119,1.281,2.786,2.427,2.786
			c0.415,0,0.746-0.211,1.048-0.64c1.238-1.871,15.584-21.839,16.85-22.95c0.394-0.345,0.739-0.528,0.992-0.528
			c0.127,0,0.246,0.056,0.296,0.162c0.267,0.507-0.479,2.174-2.118,4.665c-1.478,2.244-3.975,6.403-6.41,10.413
			c-3.011,5.002-5.861,9.723-6.55,10.497c-0.387,0.436-0.528,0.943-0.415,1.499c0.19,0.914,1.119,1.914,2.294,2.462
			c0.042,0.021,0.099,0.028,0.134,0.028c1.175,0,4.51-5.108,7.183-9.21c1.653-2.526,3.082-4.7,3.666-5.164
			c0.457-0.373,0.767-0.415,0.887-0.176c0.281,0.563-0.626,2.624-1.893,4.32c-1.914,2.561-7.95,11.384-8.253,12.151
			c-0.049,0.141,0.014,0.366,0.197,0.647c0.556,0.816,1.977,1.871,2.709,1.871c0.12,0,0.218-0.035,0.296-0.099
			c0.239-0.197,2.392-3.412,5.108-7.479c5.699-8.506,14.304-21.368,16.084-22.627c0.893-0.64,1.47-1.006,1.731-1.006
			c0.091,0,0.141,0.049,0.169,0.091c0.176,0.324-0.549,1.583-3.525,6.149c-1.534,2.35-4.228,6.213-7.092,10.314
			c-5.234,7.486-11.152,15.964-11.152,16.956c0,1.189,1.337,2.948,2.554,2.948c0.288,0,0.549-0.127,0.774-0.345
			c0.38-0.38,2.624-3.609,5.467-7.676c6.501-9.343,16.337-23.457,17.955-23.935c0.373-0.106,0.591-0.078,0.668,0.084
			c0.232,0.493-0.964,2.097-2.92,4.672c-1.041,1.351-2.125,2.765-2.976,4.052c-2.498,3.785-13.888,20.706-15.289,22.43
			c-0.985,1.196-1.372,2.139-1.119,2.779c0.183,0.5,0.753,0.844,1.696,1.006l0.021,0.007c0,0,0.042,0.021,0.12,0.021
			c0.316,0,1.231-0.281,2.92-2.807C53.908,118.646,56.096,116.542,56.589,116.542"/>
	</g>
	<g>
		<path fill="#73B9E6" d="M86.164,89.959l9.674-14.986h6.409c0,0-0.633,2.195-2.814,3.595c-2.188,1.407-2.35,3.433,0,2.645
			c2.329-0.781,6.234-3.124,7.169-6.241c0,0,3.433-0.936,6.241,1.879c2.821,2.807,4.214,8.576-2.484,13.107H86.164z"/>
	</g>
	<g>
		<path fill="#73B9E6" d="M110.375,90.016h-24.33l9.759-15.106h6.515l-0.014,0.078c-0.014,0.035-0.654,2.23-2.842,3.63
			c-1.266,0.823-1.794,1.801-1.654,2.315c0.134,0.422,0.732,0.521,1.604,0.218c2.265-0.753,6.213-3.089,7.127-6.191l0.021-0.042
			l0.021-0.007c0,0,0.57-0.155,1.414-0.155c1.302,0,3.208,0.359,4.904,2.047c1.667,1.667,2.519,3.996,2.315,6.234
			c-0.253,2.603-1.928,5.009-4.834,6.979H110.375z M86.285,89.89h24.041c2.87-1.935,4.51-4.306,4.763-6.86
			c0.204-2.202-0.64-4.503-2.287-6.142c-1.66-1.646-3.539-1.991-4.805-1.991c-0.711,0-1.217,0.099-1.351,0.141
			c-0.957,3.138-4.819,5.453-7.198,6.234c-0.95,0.324-1.604,0.204-1.752-0.317c-0.169-0.556,0.352-1.583,1.703-2.448
			c1.893-1.224,2.61-3.061,2.758-3.469h-6.29L86.285,89.89z"/>
	</g>
	<g>
		<path fill="#73B9E6" d="M78.724,107.311l6.036-7.866l4.996,4.559c0,0-3.588,5.291-3.588,6.234c0,0.95,3.912-4.679,4.834-5.305
			l2.498,2.188c0,0-6.234,9.801-7.866,11.018c-1.33,0.992-0.521-3.257-1.689-5.544C83.312,111.335,80.884,108.627,78.724,107.311"/>
	</g>
	<g>
		<path fill="#73B9E6" d="M85.293,118.352c-0.485,0-0.556-0.887-0.661-2.111c-0.099-1.154-0.218-2.617-0.746-3.63
			c-0.612-1.203-3.004-3.905-5.192-5.249l-0.056-0.035l0.035-0.063l6.072-7.908l0.056,0.042l5.045,4.587l-0.035,0.049
			c-0.035,0.056-3.574,5.298-3.574,6.205v0.035c0.239,0,1.428-1.498,2.371-2.688c1.006-1.245,1.935-2.427,2.364-2.709l0.042-0.028
			l0.021,0.028l2.554,2.23l-0.035,0.042c-0.253,0.401-6.255,9.843-7.887,11.039C85.532,118.303,85.398,118.352,85.293,118.352
			 M78.813,107.292c2.209,1.365,4.573,4.06,5.185,5.256c0.549,1.055,0.661,2.512,0.76,3.687c0.091,1.069,0.176,1.977,0.535,1.977
			c0.077,0,0.176-0.035,0.303-0.113c1.541-1.168,7.345-10.237,7.817-10.976l-2.413-2.111c-0.422,0.316-1.372,1.513-2.28,2.652
			c-1.351,1.703-2.202,2.737-2.484,2.737c-0.042,0-0.127-0.014-0.127-0.162c0-0.908,3.187-5.671,3.553-6.234l-4.89-4.461
			L78.813,107.292z"/>
	</g>
	<g>
		<path fill="#73B9E6" d="M70.407,129.713c0,0-3.117,5.797-4.841,8.457c-1.71,2.645,0.936,7.5,3.433,3.286
			c2.505-4.235,7.648-9.217,8.274-10.307c0.626-1.091-0.148-1.147-2.026-1.435C73.376,129.432,70.779,129.024,70.407,129.713"/>
	</g>
	<g>
		<path fill="#73B9E6" d="M66.954,143.171L66.954,143.171c-0.591,0-1.147-0.401-1.534-1.098c-0.535-0.999-0.739-2.652,0.099-3.947
			c1.689-2.617,4.791-8.387,4.833-8.436c0.148-0.281,0.605-0.422,1.414-0.422c0.971,0,2.294,0.204,3.363,0.366l0.401,0.063
			c1.119,0.169,1.794,0.267,1.97,0.64c0.091,0.204,0.042,0.457-0.176,0.837c-0.218,0.387-0.95,1.203-1.97,2.336
			c-1.85,2.075-4.672,5.213-6.304,7.979C68.228,142.883,67.454,143.171,66.954,143.171 M71.767,129.395
			c-0.732,0-1.175,0.12-1.302,0.352c-0.028,0.063-3.138,5.84-4.84,8.457c-0.774,1.182-0.626,2.807-0.091,3.799
			c0.373,0.661,0.879,1.048,1.421,1.048c0.661,0,1.365-0.57,1.984-1.632c1.653-2.772,4.461-5.91,6.325-7.986
			c0.971-1.091,1.731-1.942,1.942-2.315c0.197-0.338,0.253-0.57,0.169-0.725c-0.148-0.31-0.837-0.415-1.85-0.57l-0.422-0.063
			C74.046,129.6,72.723,129.395,71.767,129.395"/>
	</g>
	<g>
		<path fill="#73B9E6" d="M73.222,142.382c0,0-2.997,3.279-1.97,4.524c1.02,1.245,2.427,2.962,3.518,1.703
			c1.105-1.231,23.408-33.377,25.279-34.777c0,0,0.781-1.105-0.936-2.202c-1.71-1.077-1.879,0.183-2.814,1.421
			c-0.915,1.245-3.588,5.15-4.51,5.924c-0.943,0.774,4.214-7.486,4.841-8.731c0,0,0-1.133-0.957-1.815
			c-0.929-0.682-1.076-1.154-3.736,2.906C89.292,115.393,74.39,140.869,73.222,142.382"/>
	</g>
	<g>
		<path fill="#73B9E6" d="M73.919,149.117L73.919,149.117c-0.929,0-1.907-1.196-2.702-2.16c-1.055-1.281,1.815-4.489,1.956-4.623
			c0.598-0.781,5.002-8.182,9.259-15.352c4.017-6.747,8.182-13.734,9.456-15.697c1.674-2.554,2.392-3.37,2.948-3.37
			c0.267,0,0.464,0.148,0.746,0.352c0.028,0.028,0.077,0.063,0.134,0.113c0.964,0.697,0.978,1.808,0.978,1.85l-0.014,0.028
			c-0.218,0.429-0.915,1.611-1.738,2.99c-1.224,2.061-3.039,5.115-3.201,5.678c0.703-0.584,2.322-2.863,3.518-4.524
			c0.401-0.57,0.753-1.069,0.985-1.393c0.204-0.246,0.366-0.499,0.514-0.746c0.373-0.619,0.683-1.105,1.266-1.105
			c0.31,0,0.675,0.127,1.133,0.436c0.647,0.408,1.02,0.866,1.119,1.358c0.099,0.521-0.162,0.894-0.162,0.908l-0.014,0.014
			c-1.245,0.943-11.82,15.88-18.806,25.758c-3.412,4.812-6.107,8.619-6.466,9.034C74.559,148.962,74.249,149.117,73.919,149.117
			 M94.836,108.035c-0.493,0-1.21,0.837-2.836,3.342c-1.281,1.942-5.432,8.921-9.449,15.683c-4.461,7.493-8.682,14.578-9.294,15.359
			c-0.035,0.035-2.934,3.257-1.956,4.446c0.788,0.957,1.745,2.125,2.617,2.125c0.31,0,0.563-0.134,0.795-0.415
			c0.366-0.401,3.061-4.2,6.466-9.013c6.979-9.871,17.519-24.766,18.828-25.786c0.042-0.049,0.218-0.366,0.134-0.795
			c-0.091-0.464-0.45-0.893-1.069-1.28c-0.422-0.281-0.774-0.415-1.048-0.415c-0.507,0-0.788,0.45-1.168,1.048
			c-0.141,0.225-0.295,0.493-0.493,0.746c-0.246,0.331-0.591,0.816-1.006,1.393c-1.189,1.675-2.835,3.968-3.532,4.552
			c-0.056,0.042-0.099,0.078-0.099,0.078c-0.07,0-0.091-0.028-0.12-0.049c-0.099-0.204,0.865-1.892,3.229-5.875
			c0.816-1.351,1.506-2.54,1.724-2.955c0-0.126-0.07-1.119-0.908-1.745c-0.056-0.035-0.113-0.078-0.155-0.113
			C95.258,108.183,95.054,108.035,94.836,108.035"/>
	</g>
</g>
</svg>
